HIERARCHY
ROOT Hips
{
	OFFSET 0.00000 0.00000 0.00000
	CHANNELS 6 Xposition Yposition Zposition Zrotation Yrotation Xrotation 
	JOINT LHipJoint
	{
		OFFSET 0 0 0
		CHANNELS 3 Zrotation Yrotation Xrotation
		JOINT LeftHip
		{
			OFFSET 1.59801 -1.77853 0.57028
			CHANNELS 3 Zrotation Yrotation Xrotation
			JOINT LeftKnee
			{
				OFFSET 2.39439 -6.57854 0.00000
				CHANNELS 3 Zrotation Yrotation Xrotation
				JOINT LeftAnkle
				{
					OFFSET 2.69334 -7.39989 0.00000
					CHANNELS 3 Zrotation Yrotation Xrotation
					JOINT LeftToe
					{
						OFFSET 0.09553 -0.26245 1.73747
						CHANNELS 3 Zrotation Yrotation Xrotation
						End Site
						{
							OFFSET 0.00000 -0.00000 0.89391
						}
					}
				}
			}
		}
	}
	JOINT RHipJoint
	{
		OFFSET 0 0 0
		CHANNELS 3 Zrotation Yrotation Xrotation
		JOINT RightHip
		{
			OFFSET -1.54704 -1.77852 0.57028
			CHANNELS 3 Zrotation Yrotation Xrotation
			JOINT RightKnee
			{
				OFFSET -2.40286 -6.60180 0.00000
				CHANNELS 3 Zrotation Yrotation Xrotation
				JOINT RightAnkle
				{
					OFFSET -2.63873 -7.24984 0.00000
					CHANNELS 3 Zrotation Yrotation Xrotation
					JOINT RightToe
					{
						OFFSET -0.15631 -0.42945 1.84436
						CHANNELS 3 Zrotation Yrotation Xrotation
						End Site
						{
							OFFSET -0.00000 -0.00000 0.95734
						}
					}
				}
			}
		}
	}
	JOINT lowerback
	{
		OFFSET 0 0 0
		CHANNELS 3 Zrotation Yrotation Xrotation
		JOINT Chest
		{
			OFFSET -0.00436 1.89866 -0.04018
			CHANNELS 3 Zrotation Yrotation Xrotation
			JOINT Chest2
			{
				OFFSET 0.02031 1.88273 0.09634
				CHANNELS 3 Zrotation Yrotation Xrotation
				JOINT lowerneck
				{
					OFFSET 0 0 0
					CHANNELS 3 Zrotation Yrotation Xrotation
					JOINT Neck
					{
						OFFSET -0.13105 1.89371 0.23083
						CHANNELS 3 Zrotation Yrotation Xrotation
						JOINT Head
						{
							OFFSET 0.17062 1.83990 -0.54062
							CHANNELS 3 Zrotation Yrotation Xrotation
							End Site
							{
								OFFSET 0.04576 1.94782 -0.21839
							}
						}
					}
				}
				JOINT LeftCollar
				{
					OFFSET 0 0 0
					CHANNELS 3 Zrotation Yrotation Xrotation
					JOINT LeftShoulder
					{
						OFFSET 3.12424 1.09204 0.22226
CHANNELS 3 Zrotation Xrotation Yrotation
						JOINT LeftElbow
						{
OFFSET 0 -5.292770 0.000000
CHANNELS 3 Zrotation Xrotation Yrotation
							JOINT LeftWrist
							{
OFFSET 0 -2.852260 0.000000
CHANNELS 3 Zrotation Xrotation Yrotation
								JOINT lhand
								{
									OFFSET 0 0 0
CHANNELS 3 Zrotation Xrotation Yrotation
									JOINT LFingers
									{
OFFSET 0 -0.602100 0.000000
CHANNELS 3 Zrotation Xrotation Yrotation
										End Site
										{
OFFSET 0 -0.485430 0.000000
										}
									}
								}
								JOINT LThumb
								{
OFFSET 0 0.000000 0.000000
CHANNELS 3 Zrotation Xrotation Yrotation
									End Site
									{
OFFSET 0 -0.492840 0.492840
									}
								}
							}
						}
					}
				}
				JOINT RightCollar
				{
					OFFSET 0 0 0
					CHANNELS 3 Zrotation Yrotation Xrotation
					JOINT RightShoulder
					{
						OFFSET -2.91709 1.01504 0.30199
CHANNELS 3 Zrotation Xrotation Yrotation
						JOINT RightElbow
						{
OFFSET 0 -5.133040 0.000000
CHANNELS 3 Zrotation Xrotation Yrotation
							JOINT RightWrist
							{
OFFSET 0 -2.743050 0.000000
CHANNELS 3 Zrotation Xrotation Yrotation
								JOINT rhand
								{
									OFFSET 0 0 0
CHANNELS 3 Zrotation Xrotation Yrotation
									JOINT RFingers
									{
OFFSET 0 -0.767980 0.000000
CHANNELS 3 Zrotation Xrotation Yrotation
										End Site
										{
OFFSET 0 -0.619160 0.000000
										}
									}
								}
								JOINT RThumb
								{
OFFSET 0 0.000000 0.000000
CHANNELS 3 Zrotation Xrotation Yrotation
									End Site
									{
OFFSET 0 -0.628620 0.628620
									}
								}
							}
						}
					}
				}
			}
		}
	}
}
MOTION
Frames: 4
Frame Time: 0.008333333333333333
0.277755 16.870752 0.078161 2.177415 7.375991 -2.521952 0.000000 0.000000 0.000000 -20.849788 -11.213700 -7.478444 3.165921 10.958246 32.139893 0.857880 -8.654827 -16.702101 0.628301 -5.072119 -14.114327 0.000000 0.000000 0.000000 14.572413 1.049631 -7.375188 -3.215990 -11.035828 32.401881 -1.565683 0.104624 -23.646987 -0.317617 3.622059 -10.015973 -2.131045 1.181238 5.813677 6.335261 1.338988 8.212890 7.884901 0.352808 5.138415 -20.097354 -13.827326 -6.486729 24.775786 -20.990073 13.830830 9.123734 -9.444163 10.540278 0.000000 0.000000 0.000000 108.453267 -27.659912 20.480101 108.809454 -58.618105 76.213685 -10.528589 -103.015527 -27.823265 0.000000 0.000000 0.000000 -7.125000 0.000000 0.000000 -41.477731 52.832660 9.272289 0.000000 0.000000 0.000000 -41.074019 -17.444874 79.266698 -48.720914 -52.459007 -25.158228 -15.714979 18.879561 -19.673849 0.000000 0.000000 0.000000 7.125000 0.000000 0.000000 8.139411 9.766381 6.710728
0.248367 17.278704 0.599918 1.174023 7.391247 2.005559 0.000000 0.000000 0.000000 -19.899823 -15.483856 -2.128792 1.334124 7.312770 20.645860 0.724594 -2.096284 -15.506047 0.549365 -4.748209 -13.191796 0.000000 0.000000 0.000000 17.441810 5.474610 -0.214472 -0.955598 -6.221212 17.428861 -0.689769 -7.756224 -20.380518 -0.223358 3.041765 -8.395010 -1.119143 -0.448017 0.160837 3.932473 -0.652603 2.139522 4.677075 -0.387452 2.168143 -20.257115 -12.677367 -5.159122 23.111758 -19.973124 17.331035 8.977153 -9.122715 11.024550 0.000000 0.000000 0.000000 98.645090 -20.967596 -6.704096 132.199125 -52.062616 95.569656 -1.251742 -85.764767 -37.978295 0.000000 0.000000 0.000000 -7.125000 0.000000 0.000000 -43.325272 62.587296 20.490460 0.000000 0.000000 0.000000 -49.489495 -11.763997 81.865872 -102.638120 -59.363643 -70.919819 -2.351537 6.303546 -17.146584 0.000000 0.000000 0.000000 7.125000 0.000000 0.000000 16.800078 13.323576 13.060767
0.184492 17.359953 1.026963 -0.396178 4.370125 3.221654 0.000000 0.000000 0.000000 -18.617008 -16.577204 1.934032 0.827804 5.804808 16.219190 0.792555 2.352552 -17.825954 0.535637 -4.688646 -13.022830 0.000000 0.000000 0.000000 19.757807 7.061732 6.379388 -0.144349 -2.448625 6.747307 -0.190932 -9.505333 -16.412890 -0.262781 3.297645 -9.108503 0.681829 -0.616619 -2.159357 2.852079 -0.802711 -2.443893 2.536514 -0.385978 -1.264194 -19.673622 -11.845315 -5.144880 17.603935 -18.358625 22.088242 7.211509 -8.687644 11.587195 0.000000 0.000000 0.000000 68.780077 -5.075055 -17.480717 150.213527 -40.707372 108.729034 -9.339172 -92.855138 -35.203762 0.000000 0.000000 0.000000 -7.125000 0.000000 0.000000 -47.435170 58.600180 18.350669 0.000000 0.000000 0.000000 -48.185432 1.121090 54.318215 -142.205814 -46.702882 -103.182954 5.240335 -26.794160 -11.610684 0.000000 0.000000 0.000000 7.125000 0.000000 0.000000 22.261984 18.698373 15.133743
0.138855 17.213751 1.187008 -0.506913 4.684310 -1.548878 0.000000 0.000000 0.000000 -19.526138 -14.169255 5.325270 1.215411 6.993010 19.694775 1.051384 -0.074265 -19.364893 0.494485 -4.508265 -12.511202 0.000000 0.000000 0.000000 20.545229 4.562492 9.304797 -0.379297 -3.955304 10.950961 -0.544025 -7.905034 -19.000559 -0.357013 3.838592 -10.622980 -0.556195 -0.471982 -2.892672 1.650788 -0.613632 -2.022688 1.988689 -0.291312 -0.427716 -20.100610 -10.828942 1.991362 18.901305 -18.268676 21.080829 8.204598 -9.051757 9.988305 0.000000 0.000000 0.000000 16.975719 2.854620 9.152941 149.481824 -41.329139 108.248160 -20.944098 -92.601136 -26.415356 0.000000 0.000000 0.000000 -7.125000 0.000000 0.000000 -48.923937 49.964874 7.624313 0.000000 0.000000 0.000000 -20.374027 4.526848 -4.555284 -147.730065 -42.760801 -107.076083 1.222168 -48.024759 -7.437174 0.000000 0.000000 0.000000 7.125000 0.000000 0.000000 20.167965 22.610427 11.579574
